<svg xmlns="http://www.w3.org/2000/svg" viewBox="0 0 504.67 342">

<style type="text/css">
	path {
		fill:none; 
		stroke:#FF0033;
		stroke-width:2; stroke-linecap:round; 
		stroke-linejoin:round
	}
</style>
<g>
	<path d="M451.95,35.07c-1.86,10.83-3.86,21.64-5.72,32.47c-1.61,9.36-3.1,18.73-4.59,28.11
		c-0.76,4.76,0.21,5.62,5.19,5.08c7.46-0.81,14.92-3.32,22.29-4.61c2.46-0.42,21.63-7.61,21.38-9c-2.31-12.79-6.92-34.03-10.66-46.5
		c-0.58-1.94-1.97-3.08-3.35-4.34c3.73-1.93,5.9-1.02,6.98,3.34c1.71,6.91,3.2,13.88,4.64,20.86c1.39,6.72,2.59,13.49,3.91,20.23
		c0.26,1.35,0.57,2.71,1.07,3.97c0.66,1.62,2.08,2.06,3.72,1.84c1.63-0.22,26.17-4.84,25.43-7.9c-1.92-7.88-6.6-25.83-8.42-33.74
		c-1.18-5.1-4.38-7.79-9.59-8.61c-3.81-0.61-7.82,0.13-11.42-1.7c-2.98-1.9,9.07-3.07,13.98-3.07c-1.4-2.02-5.76-1.67-6.9-1.69
		C487.4,29.64,451.95,35.07,451.95,35.07l-5.36-9.88l23.94,0.12l28.06,2.16c0,0,9.13,1.62,12.93,4.87
		c10.7,9.11,19.64,19.9,29.27,30.03c3.36,3.53,7.01,6.79,10.24,10.43c4.38,4.93,9.83,7.04,16.26,7.17c1.22,0.03,2.51-0.21,3.86,0.7
		c-0.62,1.18-1.82,1.14-2.8,1.35c-29.72,6.2-59.29,13.03-88.83,20.03c-10.7,2.54-21.42,4.87-32.32,6.4
		c-6.93,0.97-7.9,3.39-4.36,9.25c1.44,2.38,2.48,4.9,3.12,7.59c0.45,1.88,1.54,2.61,3.28,1.49c20.96-13.44,45.4-17.14,68.5-24.62
		c21.45-6.94,43.62-10.93,65.4-16.49c5.89-1.5,8.13-0.04,8.45,6.18c0.6,11.67-0.17,23.24-4.23,34.35
		c-4.2,11.51-8.63,22.93-15.46,33.22c-1.16,1.75-2.47,3.63-4.17,4.75c-5.88,3.91-8.29,9.8-9.94,16.21
		c-1.21,4.72-2.35,9.45-3.55,14.17c-0.85,3.34-2.54,6.27-4.71,8.88c-7.07,8.51-19.95,6.48-24.12-3.74
		c-0.24-0.58-0.48-1.16-0.72-1.73c-1.86-4.43-2.77-4.77-6.95-2.17c-17.93,11.16-35.86,22.31-53.73,33.55
		c-12.05,7.59-24.02,15.31-36.01,23.01c-3.96,2.55-8.04,2.95-12.53,1.54c-5.92-1.86-11.66-4.59-18.09-4.43
		c-5.06,0.13-7.58,1.84-8.27,6.82c-0.81,5.79-1.04,11.67-1.37,17.53c-0.7,12.36-1.79,24.66-5.17,36.64
		c-0.61,2.15-1.45,4.24-2.24,6.34c-4.92,13.08-16.37,16.9-30.29,15.31c-15.26-1.74-23.21-10.66-26.71-24.82
		c-0.73-2.98-0.02-6.74-2.62-8.76c-2.74-2.12-5.98,0.32-9.03,0.47c-10.69,0.51-21.2-1.04-31.69-2.6
		c-41.64-6.18-82.93-14.41-124.34-21.91c-4.91-0.89-9.24-0.46-13.73,1.83c-15.23,7.76-29.77,4.91-43.68-3.64
		c-3.94-2.42-6.57-6.34-8.12-10.55c-2.06-5.62-6.13-8.65-11.33-10.63c-2.56-0.97-5.21-1.75-7.85-2.46
		c-2.73-0.73-4.75-2.22-5.78-4.87c-1.6-4.15-4.74-7.01-8.12-9.6c-7.05-5.39-14.22-10.62-21.25-16.02c-2.28-1.76-5.88-3.76-3.55-7.12
		c2.31-3.35,5.2-0.17,7.46,1.12c4.22,2.42,8.11,5.42,12.55,7.47c1.32,0.61,3.27,2.25,4.2,0.23c0.8-1.77-1.61-2.19-2.85-2.74
		c-5.96-2.61-11.8-5.43-17.41-8.73c-5.14-3.02-6.97-7.94-8.01-13.35c-0.32-1.68,0.51-2.93,2.04-3.62c1.88-0.85,1.79-2.02,0.89-3.61
		c-4.05-7.19-5.95-15.09-7.38-23.1c-0.83-4.67,0.31-9.21,2.35-13.43c1.43-2.97,3.95-4.31,7.33-4.21c2.88,0.08,5.74,0.07,8.53,0.94
		c1.68,0.53,2.82,1.53,3.31,3.25c0.25,0.87,0.47,1.73-0.21,2.48c-0.88,0.96-1.84,0.57-2.71,0.01c-1.75-1.13-3.64-1.65-5.71-1.33
		c-2.64,0.42-4.21,2.08-4.94,4.55c-2.95,10.02-1.85,19.55,3.68,28.45c2.33,3.76,5.81,5.78,10.29,5.86c1.19,0.02,2.99,0.25,2.96-1.41
		c-0.04-1.7-1.77-0.79-2.73-0.82c-2.03-0.08-3.95-0.26-5.82-2.59c5.84,0.48,5.97-3.56,6.61-7.16c1.36-7.62,2.67-15.25,4.03-22.87
		c0.24-1.35-0.13-2.44-1.01-3.45c-0.64-0.73-1.62-1.44-1.01-2.56c0.75-1.36,2.19-1.13,3.38-0.97c5.81,0.82,11.61,1.7,17.41,2.62
		c4.06,0.64,8.06,1.75,12.21,1.82c11.21,1.15,22.18,3.66,31.1,4.86c-3.91-0.74-10.12-1.47-16.22-2.72
		c-4.48-0.91-9.21-0.68-13.42-2.86c-15.61-2.83-31.22-5.64-46.82-8.51c-2.03-0.37-3.95-0.3-5.9,0.36c-0.81,0.28-1.81,0.59-2.28-0.49
		c-0.54-1.25,0.43-1.9,1.35-2.27c6.66-2.69,13.46-4.71,20.76-3.95c18.62,1.91,37.25,3.82,55.86,5.83
		c18.86,2.03,37.71,4.2,56.56,6.29c19.35,2.15,38.71,4.26,58.06,6.43c12.04,1.34,24.06,2.72,36.08,4.17
		c3.19,0.39,6.28,0.5,9.08-1.27c20.37-12.88,42.86-20.83,65.55-28.33c1.78-0.59,3.53-1.26,5.26-1.97c0.67-0.27,1.52-0.65,1.39-1.53
		c-0.12-0.85-0.99-1.1-1.72-1.22c-1.47-0.25-2.96-0.46-4.44-0.55c-1.75-0.11-3.45-0.23-5.14-0.85
		c-12.41-4.57-25.15-7.96-38.13-10.44c-1.59-0.31-3.19-0.6-4.77-0.96c-0.92-0.21-1.6-0.78-1.7-1.77c-0.12-1.19,0.63-1.84,1.65-2.2
		c2-0.71,4.1-1.19,6-2.1c2.01-0.96,2.24-2.3-0.02-3.43c-0.78-0.39-1.64-0.66-2.33-1.17c-2.13-1.6-1.93-3.05,0.6-3.95
		c1.8-0.64,4.02-0.96,3.33-3.55c-0.7-2.65-3.07-2.76-5.22-2.27c-3.02,0.68-5.37,0.23-7.09-2.58c-0.88-1.43-2.52-1.47-4.05-1.47
		c-8.75-0.01-17.5-0.02-26.25,0.01c-1.05,0.01-2.83-0.33-2.82,1.02c0.02,1.73,1.91,1.15,3.02,1.17c5.37,0.07,10.75,0.03,16.12,0.05
		c1.12,0,2.28-0.04,3.36,0.21c1.1,0.25,2.99-0.07,2.89,1.61c-0.09,1.31-1.77,1.07-2.85,1.13c-8.85,0.51-17.71,0.9-26.59,0.77
		c-2.27-0.03-3.93-0.21-3.63-3.22c0.21-1.99-1.61-2.56-3.08-2.52c-8.82,0.26-17.74-0.3-26.28,2.66c-1.2,0.41-2.37,1.15-3.45,0.03
		c-1.16-1.2-0.14-2.32,0.43-3.38c4.16-7.8,10.32-14.09,15.96-20.75c9.12-10.76,18.35-21.43,27.55-32.12
		c0.87-1.01,1.76-2.08,3.24-2.24c0.65,1.17-0.18,1.78-0.67,2.42C241,51.03,229.97,65.4,218.96,79.78c-1.45,1.88-2.77,3.86-5.07,4.86
		c-0.83,0.37-1.55,0.96-1.3,2.02c0.27,1.2,1.3,1.58,2.31,1.47c10.39-1.14,20.97,1,31.25-1.82c5.06-1.39,10.16-2.68,15.13-4.35
		c5.14-1.72,10.04-1.57,14.93,0.7c2.75,1.27,5.04,1.31,6.23-2.16c0.74-2.12,2.66-2.84,4.66-3.36c5.71-1.46,11.54-2.2,17.41-2.36
		c7.97-0.21,15.95-0.81,23.93-0.08c2.18,0.2,3.76-0.51,5.16-2.29c3.72-4.76,8.72-6.86,14.76-6.68c18.01,0.51,35.79,3.22,53.6,5.63
		c4.33,0.59,8.68,1.16,12.93,2.16c5.48,1.29,9.61-0.52,12.77-4.84c5.09-6.95,8.62-14.62,10.02-23.19c1.11-6.8-1.44-10.63-8.22-11.75
		c-15.41-2.52-30.88-4.54-46.41-6.15c-22.87-2.35-45.81-3.56-68.81-3.04c-12.99,0.29-25.92,1.42-38.84,2.66
		c-4.93,0.48-9.92,0.34-14.91,1.36c3.91-3.68,8.51-5.99,13.62-6.9c10.71-1.88,21.51-2.88,32.39-3.24
		c17.61-0.58,35.22-0.99,52.84-0.62c26.1,0.53,52.11,2.39,77.95,6.28c3.09,0.47,6.19,0.84,9.3,1.1L451.95,35.07z"/>
	<path d="M269.75,112.83c-4.45,1.92-9.28,2.59-13.96,3.66c-22.74,5.23-45.5,10.29-67.63,17.87
		c-11.56,3.96-23.21,1.39-34.74-0.89c-1.31-0.26-2.98-0.81-2.79-2.5c0.22-1.92,2.08-1.5,3.34-1.43c3.23,0.16,6.5,0.26,9.67,0.85
		c8.53,1.57,16.95,0.98,25.19-1.34c22.61-6.37,45.66-10.67,68.78-14.62c4-0.69,7.93-1.78,11.89-2.68
		C269.58,112.11,269.67,112.47,269.75,112.83z"/>
	<path d="M83.14,153.55c11.05,1.87,22.1,3.73,33.15,5.6c-0.05,0.34-0.11,0.68-0.17,1.03
		c-11.5-1.82-23.06-3.28-34.44-5.91C82.17,154.03,82.65,153.79,83.14,153.55z"/>
	<path d="M294.47,181.64c-0.91-3.76,2.81-6.13,6.72-8.02c8.08-3.92,16.24-7.7,24.47-11.31
		c12.68-5.56,25.47-10.9,38.18-16.41c1.3-0.56,3.36-0.82,3.45-2.48c0.1-1.68-2.01-1.93-3.16-2.79c-0.1-0.07-0.23-0.11-0.33-0.18
		c-1.07-0.74-2.91-0.98-2.63-2.73c0.26-1.63,2.03-1.66,3.27-2.07c4.51-1.48,9.07-2.81,13.57-4.31c15.27-5.1,30.52-10.26,45.8-15.36
		c2.01-0.67,4.08-1.18,6.16-1.56c2.5-0.47,5.15-1.7,7.44,0.55c3.38,3.31,6,7.09,6.31,11.97c0.15,2.37-1.83,2.86-3.7,3.48
		c-30.01,9.96-59.22,21.96-87.82,35.36c-13.92,6.52-26.2,15.95-38.43,25.25c-3.88,2.96-7.81,5.82-11.98,8.34
		c-2.61,1.57-4.18,0.81-5.04-2C295.33,192.79,295.17,188.04,294.47,181.64z"/>
	<path d="M260.09,229.47c2.35,1.88,4.58,1.01,6.6,1.32c0.75,0.11,1.63,0.2,1.72,1.1c0.09,0.94-0.79,1.28-1.51,1.35
		c-4.81,0.44-9.59,1.79-14.45,0.22c-3.69-1.18-5.83-3.75-6.83-7.34c-2.36-8.45-2.67-17.02-0.81-25.59
		c1.15-5.28,4.71-8.98,9.07-11.93c1.58-1.07,3.46-1.67,5.36-1.14c8.42,2.37,14.54,7.63,16.82,16.05c2.16,7.96,0.43,15.37-6.28,21.02
		C267.06,226.82,263.65,227.72,260.09,229.47z"/>
	<path d="M344.48,132.51c2.5,0.01,5-0.04,7.45,0.57c0.92,0.23,2.2,0.11,2.31,1.44c0.1,1.23-1.02,1.63-1.92,2.01
		c-4.26,1.79-8.58,3.43-12.79,5.32c-15.47,6.97-31.08,13.65-45.6,22.56c-5.82,3.58-12.27,2.86-18.58,1.54
		c-2.16-0.46-5.55,0.21-6-2.69c-0.44-2.88,2.93-3.3,4.88-4.38c17.62-9.8,36.3-17.21,55.13-24.26
		C334.24,132.79,339.35,132.57,344.48,132.51z"/>
	<path d="M296.89,273.44c-3.17-0.11-7.58-0.53-11.65-2.14c-11.61-4.58-23.9-6.11-36.02-8.41
		c-0.49-0.1-1.02-0.1-1.47-0.29c-1.5-0.62-4.29,0.18-4.25-2.07c0.05-2.32,2.75-2.5,4.66-2.85c4.29-0.77,8.45,0.41,12.59,1.19
		c8.34,1.56,16.62,3.44,24.95,5.07c10.32,2.02,19.58-0.81,27.9-6.8c4.32-3.1,8.81-5.61,13.93-7.06c2.87-0.81,5.42-0.3,7.84,1.28
		c4.83,3.17,4.95,6.16,0.12,9.13C323.99,267.55,312,273.25,296.89,273.44z"/>
	<path d="M233.98,229.88c-12.33-1.78-24.34-3.33-36.29-5.28c-23.65-3.86-47.46-6.82-70.93-11.74
		c-20.55-4.32-40.65-10.42-60.9-15.94c-1.03-0.28-2.61-0.45-2.3-1.88c0.31-1.48,1.81-0.87,2.87-0.73c9.6,1.21,18.65,4.63,27.96,7.02
		c29.92,7.66,60.22,13.24,90.81,17.44c16.08,2.2,32.09,4.9,48.12,7.38c0.25,0.04,0.5,0.04,0.75,0.09c1.31,0.27,3.23,0.23,3.14,1.96
		C237.09,230.24,235.06,229.77,233.98,229.88z"/>
	<path d="M437.99,33.44c2.93,0.62,3.9,2.68,4.44,5.06c1.03,4.45,0.98,8.9,0.14,13.38c-2.46,13-4.24,26.12-7.4,38.99
		c-0.32,1.33-0.67,2.66-1.08,3.97c-1.92,6.21-3.81,7.75-10.23,7.6c-11.23-0.26-22.44-0.97-33.57-2.47
		c-16.57-2.22-33.09-4.79-49.63-7.22c-1.3-0.19-2.77-0.07-3.72-1.67c1.46-0.89,2.89-0.39,4.29-0.2c22.38,3.06,44.73,6.22,67.13,9.09
		c4.67,0.6,9.48,0.33,14.21,0.11c5.1-0.25,7.72-2.2,8.83-7.13c3.58-15.82,7.29-31.63,8.72-47.84
		C440.47,41.13,440.51,37.1,437.99,33.44z"/>
	<path d="M85.75,224.44c4.03,1.19,7.7,2.42,11.45,3.36c22.52,5.71,45.21,10.6,67.97,15.22
		c1.59,0.32,3.16,0.75,4.73,1.14c1.45,0.36,2.74,0.99,2.3,2.77c-0.47,1.91-2,1.49-3.36,1.2c-8.67-1.86-17.36-3.61-26-5.59
		c-18.25-4.19-36.7-7.48-54.76-12.52c-1.08-0.3-2.2-0.53-3.22-0.99c-1.14-0.51-3.11-0.63-2.44-2.58
		C82.93,224.94,84.39,224.29,85.75,224.44z"/>
	<path d="M347.16,224.08c-0.21-0.29-0.36-0.42-0.34-0.49c3.66-10.75,7.35-21.62,15.01-30.24
		c7.45-8.39,17.37-12.88,28.35-14.83c2.66-0.48,5.47-0.23,8.21-0.18c1.47,0.03,2.79,0.59,2.89,2.32c0.1,1.76-1.22,2.38-2.63,2.63
		c-2.95,0.51-5.96,0.71-8.87,1.37c-10.89,2.44-19.79,8.25-26.77,16.81c-5.13,6.28-9.89,12.88-13.56,20.18
		C348.98,222.59,348.72,223.84,347.16,224.08z"/>
	<path d="M145.49,163.95c13.02,1.39,26.03,2.79,39.05,4.18c15.86,1.7,31.72,3.44,47.61,4.99
		c14.26,1.39,28.56,2.87,42.5,6.49c2.8,0.72,5.55,1.66,7.51,3.93c0.88,1.02,1.7,2.39,0.45,3.68c-1.05,1.07-2.6,0.83-3.43-0.04
		c-7.57-7.97-18.08-7.11-27.51-8.74c-21.02-3.62-42.29-5.44-63.48-7.86c-14.99-1.72-29.93-3.92-44.89-5.9
		C143.49,162.8,144.61,163.75,145.49,163.95z"/>
	<path d="M374.78,234.43c3.43,0.68,4.18,3.2,4.75,5.76c2.13,9.58,2.62,19.31,2.05,29.05
		c-0.64,10.96-1.64,21.91-5.15,32.45c-1.16,3.48-2.89,6.61-4.99,9.59c-1.14,1.6-2.34,3.11-4.57,2.43c-2.26-0.7-3.34-2.57-3.73-4.76
		c-0.35-1.99-0.7-4.46,1.68-5.21c8.04-2.54,9.59-9.52,11.48-16.26c2.19-7.75,2.78-15.71,2.55-23.74c-0.07-2.37-0.13-4.74-0.13-7.12
		C378.71,249.04,379.36,241.34,374.78,234.43z"/>
	<path d="M430.5,30.23c-25.16-3.88-50.42-6.26-75.85-7.4c-25.37-1.14-50.69,0.14-76.03,0.65
		C288.75,16.57,417.4,21.95,430.5,30.23z"/>
	<path d="M127.06,220.03c8.08,1.43,16.16,2.84,24.24,4.3c6.74,1.22,13.48,2.47,20.22,3.78c0.9,0.17,2.4,0.25,2.24,1.49
		c-0.2,1.53-1.77,1.15-2.78,0.97c-14.47-2.64-28.97-5.17-43.1-9.38c-0.34-0.1-0.64-0.32-0.95-0.49
		C126.97,220.47,127.02,220.25,127.06,220.03z"/>
	<path d="M362.96,265.59c-0.01-5.43,1.55-10.55,3.12-15.66c0.38-1.21,0.96-2.58,2.49-2.27
		c1.68,0.34,1.92,1.95,1.57,3.31c-0.87,3.36-2.06,6.65-2.91,10.02c-0.63,2.52-0.91,5.13-1.37,7.7c-0.2,1.1-0.33,2.51-1.8,2.35
		c-1.27-0.14-1.03-1.51-1.09-2.46C362.92,267.58,362.96,266.59,362.96,265.59z"/>
	<path d="M119.91,174.46c0.44-1.96,0.97-4.63,1.66-7.24c0.34-1.27,1.2-2.31,2.72-1.83c1.32,0.41,1.41,1.57,1.14,2.76
		c-0.67,3.01-1.6,5.97-1.78,9.08c-0.07,1.08-0.73,2.03-1.95,1.67C119.84,178.36,120.12,176.64,119.91,174.46z"/>
	<path d="M240.65,194.84c0.54,5.16-1.1,9.63-0.35,14.2c0.24,1.42-1.46,0.83-2.22,0.24c-1.8-1.38-1.94-3.41-1.82-5.45
		C236.46,200.6,237.7,197.81,240.65,194.84z"/>
	<path d="M145.49,163.95c-0.73,0.24-1.46,0.48-2.19,0.73c-2.41-0.12-4.77-0.42-6.92-1.75
		C139.46,162.91,142.53,162.88,145.49,163.95z"/>
</g>
</svg>
