<?xml version="1.0" encoding="UTF-8"?>
<svg version="1.1" width="900px" height="50px" viewBox="0 0 900 50" xmlns="http://www.w3.org/2000/svg">
    <style>
    path { fill: hsl(191, 46%, 36%); }
        path { fill: hsl(0, 90%, 56%); }
    
    
  </style>
    <g id="ext_link" lang="en" role="graphics-symbol" style="" transform="matrix(0.406583, 0, 0, 0.406583, 322.779175, 33.14325)">
        <title>Link To An External Website</title>
        <path class="ext_link" d="M576.988,21.605V32.78c0,3.436-2.853,6.22-6.359,6.22h-15.281 c-3.507,0-6.359-2.784-6.359-6.22V17.223c0-3.439,2.853-6.223,6.359-6.223h11.993"/>
        <path class="ext_link blue-fill" d="M579.825,6.5h-6.62v2.356h4.459c-2.446,2.454-6.485,6.509-10.283,10.323l2.029,1.998l10.344-10.383v4.635l2.347,0.015 v-6.66C582.097,7.524,581.081,6.5,579.825,6.5z"/>
    </g>
    <g id="openmenu" role="button">
    <title>Open Navigation Menu</title>
        <path d="M 130.34 34.1 C 128.05 34.1 126.32 33.43 125.13 32.1 C 123.94 30.77 123.34 28.85 123.34 26.35 C 123.34 23.81 123.96 21.86 125.21 20.49 C 126.46 19.12 128.25 18.44 130.6 18.44 C 132.2 18.44 133.64 18.73 134.91 19.32 L 133.94 21.91 C 132.58 21.38 131.46 21.12 130.58 21.12 C 127.96 21.12 126.65 22.85 126.65 26.32 C 126.65 28.02 126.98 29.3 127.63 30.15 C 128.28 31 129.24 31.42 130.49 31.42 C 131.92 31.42 133.28 31.07 134.56 30.36 L 134.56 33.16 C 133.98 33.5 133.37 33.74 132.72 33.88 C 132.07 34.03 131.27 34.1 130.34 34.1 Z M 141.32 12.56 L 141.32 33.83 L 138.11 33.83 L 138.11 12.56 L 141.32 12.56 Z M 159.33 26.24 C 159.33 28.71 158.69 30.64 157.43 32.03 C 156.16 33.41 154.4 34.1 152.14 34.1 C 150.72 34.1 149.47 33.78 148.39 33.15 C 147.3 32.51 146.47 31.59 145.89 30.4 C 145.3 29.21 145.01 27.82 145.01 26.24 C 145.01 23.79 145.64 21.87 146.9 20.5 C 148.16 19.13 149.93 18.44 152.22 18.44 C 154.4 18.44 156.13 19.14 157.41 20.55 C 158.69 21.96 159.33 23.85 159.33 26.24 Z M 148.32 26.24 C 148.32 29.73 149.61 31.48 152.19 31.48 C 154.74 31.48 156.02 29.73 156.02 26.24 C 156.02 22.79 154.73 21.06 152.16 21.06 C 150.81 21.06 149.83 21.51 149.23 22.4 C 148.62 23.29 148.32 24.57 148.32 26.24 Z M 173.18 29.52 C 173.18 31 172.64 32.13 171.56 32.92 C 170.48 33.71 168.94 34.1 166.94 34.1 C 164.92 34.1 163.31 33.8 162.09 33.19 L 162.09 30.41 C 163.86 31.23 165.51 31.64 167.05 31.64 C 169.03 31.64 170.02 31.04 170.02 29.85 C 170.02 29.47 169.91 29.15 169.69 28.89 C 169.47 28.64 169.11 28.37 168.61 28.1 C 168.11 27.83 167.41 27.52 166.52 27.17 C 164.78 26.5 163.6 25.82 162.98 25.15 C 162.36 24.48 162.06 23.6 162.06 22.52 C 162.06 21.23 162.58 20.22 163.63 19.51 C 164.67 18.8 166.08 18.44 167.88 18.44 C 169.66 18.44 171.34 18.8 172.93 19.52 L 171.89 21.94 C 170.25 21.26 168.88 20.92 167.77 20.92 C 166.07 20.92 165.23 21.4 165.23 22.37 C 165.23 22.84 165.45 23.25 165.89 23.58 C 166.33 23.91 167.3 24.36 168.79 24.93 C 170.03 25.41 170.94 25.85 171.51 26.26 C 172.07 26.66 172.48 27.12 172.76 27.64 C 173.04 28.17 173.18 28.79 173.18 29.52 Z M 183.25 34.1 C 180.89 34.1 179.05 33.42 177.73 32.05 C 176.4 30.68 175.74 28.79 175.74 26.38 C 175.74 23.91 176.35 21.96 177.59 20.55 C 178.82 19.14 180.51 18.44 182.66 18.44 C 184.66 18.44 186.23 19.04 187.39 20.25 C 188.55 21.46 189.13 23.13 189.13 25.26 L 189.13 26.99 L 179.05 26.99 C 179.09 28.46 179.49 29.59 180.24 30.38 C 180.98 31.17 182.04 31.56 183.4 31.56 C 184.29 31.56 185.12 31.48 185.9 31.31 C 186.66 31.14 187.49 30.86 188.38 30.47 L 188.38 33.08 C 187.59 33.45 186.8 33.72 186 33.87 C 185.2 34.02 184.28 34.1 183.25 34.1 Z M 182.66 20.87 C 181.64 20.87 180.82 21.19 180.21 21.84 C 179.59 22.49 179.23 23.43 179.11 24.67 L 185.97 24.67 C 185.95 23.42 185.65 22.48 185.07 21.83 C 184.48 21.19 183.68 20.87 182.66 20.87 Z"/>
    </g>
    <g id="closemenu" role="button">
        <title>Close Navigation Menu</title>
        <path d="M 22.59 25.73 L 22.59 33.74 L 19.36 33.74 L 19.36 24.42 C 19.36 23.26 19.14 22.39 18.71 21.82 C 18.27 21.25 17.59 20.97 16.66 20.97 C 15.42 20.97 14.51 21.37 13.93 22.18 C 13.35 22.99 13.06 24.33 13.06 26.21 L 13.06 33.74 L 9.85 33.74 L 9.85 18.62 L 12.36 18.62 L 12.81 20.6 L 12.98 20.6 C 13.4 19.88 14.01 19.32 14.8 18.93 C 15.6 18.54 16.48 18.35 17.43 18.35 C 19.76 18.35 21.3 19.14 22.06 20.72 L 22.27 20.72 C 22.72 19.97 23.35 19.39 24.16 18.97 C 24.97 18.56 25.9 18.35 26.95 18.35 C 28.76 18.35 30.07 18.8 30.89 19.71 C 31.72 20.62 32.13 22.01 32.13 23.88 L 32.13 33.74 L 28.92 33.74 L 28.92 24.42 C 28.92 23.26 28.7 22.39 28.26 21.82 C 27.81 21.25 27.13 20.97 26.2 20.97 C 24.95 20.97 24.04 21.36 23.46 22.14 C 22.88 22.92 22.59 24.12 22.59 25.73 Z M 43.22 34.01 C 40.86 34.01 39.02 33.33 37.7 31.96 C 36.37 30.59 35.71 28.7 35.71 26.29 C 35.71 23.82 36.32 21.87 37.56 20.46 C 38.79 19.05 40.48 18.35 42.63 18.35 C 44.63 18.35 46.2 18.95 47.36 20.16 C 48.52 21.37 49.1 23.04 49.1 25.17 L 49.1 26.9 L 39.02 26.9 C 39.06 28.37 39.46 29.5 40.21 30.29 C 40.95 31.08 42.01 31.47 43.37 31.47 C 44.26 31.47 45.09 31.39 45.87 31.22 C 46.63 31.05 47.46 30.77 48.35 30.38 L 48.35 32.99 C 47.56 33.36 46.77 33.63 45.97 33.78 C 45.17 33.93 44.25 34.01 43.22 34.01 Z M 42.63 20.78 C 41.61 20.78 40.79 21.1 40.18 21.75 C 39.56 22.4 39.2 23.34 39.08 24.58 L 45.94 24.58 C 45.92 23.33 45.62 22.39 45.04 21.74 C 44.45 21.1 43.65 20.78 42.63 20.78 Z M 66.05 23.88 L 66.05 33.74 L 62.82 33.74 L 62.82 24.44 C 62.82 23.27 62.58 22.4 62.12 21.83 C 61.64 21.26 60.9 20.97 59.88 20.97 C 58.52 20.97 57.53 21.37 56.9 22.17 C 56.27 22.98 55.96 24.32 55.96 26.21 L 55.96 33.74 L 52.75 33.74 L 52.75 18.62 L 55.26 18.62 L 55.71 20.6 L 55.88 20.6 C 56.33 19.88 56.98 19.32 57.82 18.93 C 58.66 18.54 59.59 18.35 60.61 18.35 C 64.23 18.35 66.05 20.19 66.05 23.88 Z M 83.71 33.74 L 81.18 33.74 L 80.73 31.76 L 80.57 31.76 C 80.12 32.46 79.48 33.01 78.66 33.41 C 77.83 33.81 76.89 34.01 75.84 34.01 C 74 34.01 72.63 33.56 71.73 32.65 C 70.83 31.74 70.38 30.35 70.38 28.5 L 70.38 18.62 L 73.62 18.62 L 73.62 27.94 C 73.62 29.1 73.85 29.97 74.33 30.55 C 74.8 31.13 75.54 31.42 76.56 31.42 C 77.9 31.42 78.89 31.02 79.53 30.21 C 80.16 29.4 80.48 28.05 80.48 26.15 L 80.48 18.62 L 83.71 18.62 L 83.71 33.74 Z"/>
    </g>
</svg>